<?xml version="1.0"?>
<svg xmlns="http://www.w3.org/2000/svg" xmlns:xlink="http://www.w3.org/1999/xlink" version="1.1" id="Capa_1" x="0px" y="0px" width="512px" height="512px" viewBox="0 0 442.989 442.989" style="enable-background:new 0 0 442.989 442.989;" xml:space="preserve"><g><g>
	<path d="M254.557,118.546v205.896l68.766-27.166c2.305-0.898,4.93-0.159,6.431,1.809c0.733,0.993,1.105,2.164,1.105,3.322   c0,1.17-0.385,2.364-1.141,3.357L225.866,440.842c-1.049,1.354-2.663,2.146-4.371,2.146s-3.328-0.799-4.377-2.146L113.281,305.758   c-1.525-1.969-1.531-4.688-0.036-6.686c1.487-1.962,4.114-2.701,6.419-1.797l68.766,27.16v-205.89l-68.76,27.163   c-2.306,0.901-4.933,0.162-6.434-1.803c-0.736-0.993-1.105-2.167-1.105-3.325c0-1.173,0.381-2.364,1.144-3.357L217.124,2.146   C218.173,0.792,219.787,0,221.495,0s3.328,0.798,4.377,2.146L329.707,137.23c1.524,1.966,1.536,4.69,0.035,6.683   c-1.483,1.965-4.114,2.704-6.419,1.803L254.557,118.546z" data-original="#000000" class="active-path" data-old_color="#000000" fill="#5F5F5F"/>
</g></g> </svg>
